# xmcd
#
# Track frame offsets:
# 182
# 18630
# 38392
# 54012
# 70355
# 87835
# 104555
# 122770
# 141042
# 156255
# 174150
# 193367
# 213475
# 231480
#
# Disc length: 3382 seconds
#
#
# Revision: 0
# Processed by: cddbd v1.5.1PL0 Copyright (c) Steve Scherf et al.
# Submitted via: FreeRIP 2.942 
#
DISCID=c10d340e
DTITLE=Elkie Brooks - Elkie Brooks
DYEAR=1900
DGENRE=Bluegrass
TTITLE0=Sail on
TTITLE1=stairway to heaven
TTITLE2=you aint leavin
TTITLE3=keep it a secret
TTITLE4=when the hero walks home
TTITLE5=only love will set you free
TTITLE6=whats the matter baby
TTITLE7=cant wait all night
TTITLE8=kiss me for the last time
TTITLE9=love is over
TTITLE10=foolish game
TTITLE11=i cant dream, cant i?
TTITLE12=the last teardrop
TTITLE13=from my heart
EXTD=
EXTT0=
EXTT1=
EXTT2=
EXTT3=
EXTT4=
EXTT5=
EXTT6=
EXTT7=
EXTT8=
EXTT9=
EXTT10=
EXTT11=
EXTT12=
EXTT13=
PLAYORDER=
